# xmcd
#
# Track frame offsets:
#	150
#	16736
#	34421
#	56004
#	73405
#	93062
#	110931
#	131377
#	170787
#	188459
#	203553
#	220608
#	238982
#	257297
#	273014
#	302030
#
# Disc length: 4611 seconds
#
# Revision: 0
# Processed by: cddbd v1.5.2PL0 Copyright (c) Steve Scherf et al.
# Submitted via: dBpowerAMP V4.0
#
DISCID=dd120110
DTITLE=rance allen - stax profile
DYEAR=2005
DGENRE=Soul
TTITLE0=Lying on the truth
TTITLE1=Joy
TTITLE2=Hot line to jesus
TTITLE3=What is this
TTITLE4=I belong to you
TTITLE5=Ain't no need of crying
TTITLE6=That will be good enough for me
TTITLE7=Let the music get down in your soul
TTITLE8=What a day
TTITLE9=The painter
TTITLE10=I give my all to you
TTITLE11=God is wonderfull
TTITLE12=Up above my head
TTITLE13=Heaven is where the heart is
TTITLE14=Greatness of god
TTITLE15=Ring my bell
EXTD=a mixture of gospel and soul spanning the years 1972-75
EXTT0=
EXTT1=
EXTT2=
EXTT3=
EXTT4=
EXTT5=
EXTT6=
EXTT7=
EXTT8=
EXTT9=
EXTT10=
EXTT11=
EXTT12=
EXTT13=
EXTT14=
EXTT15=
PLAYORDER=
